<svg xmlns="http://www.w3.org/2000/svg" viewBox="11.5 11 355 355" width="355" height="355"><path d="m12.56977,260.69523l0,63.527l352.937,0l0,-63.527l-352.937,0zm232.938,45.881c-7.797,0 -14.118,-6.318 -14.118,-14.117c0,-7.801 6.321,-14.117 14.118,-14.117c7.795,0 14.117,6.316 14.117,14.117c0.001,7.798 -6.322,14.117 -14.117,14.117zm42.353,0c-7.797,0 -14.118,-6.318 -14.118,-14.117c0,-7.801 6.321,-14.117 14.118,-14.117c7.796,0 14.117,6.316 14.117,14.117c0,7.798 -6.321,14.117 -14.117,14.117zm42.352,0c-7.797,0 -14.117,-6.318 -14.117,-14.117c0,-7.801 6.32,-14.117 14.117,-14.117c7.796,0 14.118,6.316 14.118,14.117c0,7.798 -6.323,14.117 -14.118,14.117 M309.0357666015625,52.46223449707031 69.03976440429688,52.46223449707031 12.569778442382812,246.57623291015625 365.50677490234375,246.57623291015625z" fill="currentColor"/></svg>