<svg xmlns="http://www.w3.org/2000/svg" viewBox="0 0 473 245" width="473" height="473"><path d="M 473.00,193.00 C 473.00,193.00 434.00,193.00 434.00,193.00 434.00,193.00 434.00,245.00 434.00,245.00 434.00,245.00 259.00,245.00 259.00,245.00 259.00,239.01 259.59,235.54 256.67,230.00 247.91,213.34 228.26,212.83 217.65,228.00 213.65,233.71 214.00,238.44 214.00,245.00 214.00,245.00 27.00,245.00 27.00,245.00 27.00,245.00 27.00,193.00 27.00,193.00 27.00,193.00 0.00,193.00 0.00,193.00 0.00,193.00 0.00,20.00 0.00,20.00 12.36,19.43 21.26,13.56 18.00,0.00 18.00,0.00 453.00,0.00 453.00,0.00 453.01,7.85 454.03,15.96 463.00,18.82 465.56,19.42 470.18,19.04 473.00,18.82 473.00,18.82 473.00,193.00 473.00,193.00 Z M 433.00,39.00 C 433.00,39.00 386.00,39.00 386.00,39.00 386.00,39.00 386.00,147.00 386.00,147.00 386.00,147.00 433.00,147.00 433.00,147.00 433.00,147.00 433.00,39.00 433.00,39.00 Z M 423.00,193.00 C 423.00,193.00 399.00,193.00 399.00,193.00 399.00,193.00 399.00,224.00 399.00,224.00 399.00,224.00 387.00,224.00 387.00,224.00 387.00,224.00 387.00,193.00 387.00,193.00 387.00,193.00 377.00,193.00 377.00,193.00 377.00,193.00 377.00,224.00 377.00,224.00 377.00,224.00 365.00,224.00 365.00,224.00 365.00,224.00 365.00,193.00 365.00,193.00 365.00,193.00 354.00,193.00 354.00,193.00 354.00,193.00 354.00,224.00 354.00,224.00 354.00,224.00 343.00,224.00 343.00,224.00 343.00,224.00 343.00,193.00 343.00,193.00 343.00,193.00 333.00,193.00 333.00,193.00 333.00,193.00 333.00,224.00 333.00,224.00 333.00,224.00 322.00,224.00 322.00,224.00 322.00,224.00 322.00,193.00 322.00,193.00 322.00,193.00 311.00,193.00 311.00,193.00 311.00,193.00 311.00,224.00 311.00,224.00 311.00,224.00 300.00,224.00 300.00,224.00 300.00,224.00 300.00,193.00 300.00,193.00 300.00,193.00 289.00,193.00 289.00,193.00 289.00,193.00 289.00,224.00 289.00,224.00 289.00,224.00 277.00,224.00 277.00,224.00 277.00,224.00 277.00,193.00 277.00,193.00 277.00,193.00 191.00,193.00 191.00,193.00 191.00,193.00 191.00,224.00 191.00,224.00 191.00,224.00 179.00,224.00 179.00,224.00 179.00,224.00 179.00,193.00 179.00,193.00 179.00,193.00 169.00,193.00 169.00,193.00 169.00,193.00 169.00,224.00 169.00,224.00 169.00,224.00 157.00,224.00 157.00,224.00 157.00,224.00 157.00,193.00 157.00,193.00 157.00,193.00 146.00,193.00 146.00,193.00 146.00,193.00 146.00,224.00 146.00,224.00 146.00,224.00 134.00,224.00 134.00,224.00 134.00,224.00 134.00,193.00 134.00,193.00 134.00,193.00 125.00,193.00 125.00,193.00 125.00,193.00 125.00,224.00 125.00,224.00 125.00,224.00 114.00,224.00 114.00,224.00 114.00,224.00 114.00,193.00 114.00,193.00 114.00,193.00 103.00,193.00 103.00,193.00 103.00,193.00 103.00,224.00 103.00,224.00 103.00,224.00 91.00,224.00 91.00,224.00 91.00,224.00 91.00,193.00 91.00,193.00 91.00,193.00 81.00,193.00 81.00,193.00 81.00,193.00 81.00,224.00 81.00,224.00 81.00,224.00 69.00,224.00 69.00,224.00 69.00,224.00 69.00,193.00 69.00,193.00 69.00,193.00 39.00,193.00 39.00,193.00 39.00,193.00 39.00,234.00 39.00,234.00 39.00,234.00 203.00,234.00 203.00,234.00 204.62,218.32 219.49,205.67 235.00,205.04 245.28,204.62 255.94,209.24 262.67,217.04 265.14,219.89 267.13,223.51 268.54,227.00 269.28,228.84 269.93,231.78 271.56,232.98 273.27,234.24 276.91,234.00 279.00,234.00 279.00,234.00 423.00,234.00 423.00,234.00 423.00,234.00 423.00,193.00 423.00,193.00 Z M 367.00,39.00 C 367.00,39.00 320.00,39.00 320.00,39.00 320.00,39.00 320.00,147.00 320.00,147.00 320.00,147.00 367.00,147.00 367.00,147.00 367.00,147.00 367.00,39.00 367.00,39.00 Z M 303.00,39.00 C 303.00,39.00 256.00,39.00 256.00,39.00 256.00,39.00 256.00,147.00 256.00,147.00 256.00,147.00 303.00,147.00 303.00,147.00 303.00,147.00 303.00,39.00 303.00,39.00 Z M 215.00,39.00 C 215.00,39.00 168.00,39.00 168.00,39.00 168.00,39.00 168.00,147.00 168.00,147.00 168.00,147.00 215.00,147.00 215.00,147.00 215.00,147.00 215.00,39.00 215.00,39.00 Z M 148.00,39.00 C 148.00,39.00 101.00,39.00 101.00,39.00 101.00,39.00 101.00,147.00 101.00,147.00 101.00,147.00 148.00,147.00 148.00,147.00 148.00,147.00 148.00,39.00 148.00,39.00 Z M 84.00,39.00 C 84.00,39.00 37.00,39.00 37.00,39.00 37.00,39.00 37.00,147.00 37.00,147.00 37.00,147.00 84.00,147.00 84.00,147.00 84.00,147.00 84.00,39.00 84.00,39.00 Z" fill="currentColor"/></svg>